<svg width="100" height="100" viewBox="0 0 100 100" fill="none" xmlns="http://www.w3.org/2000/svg">
<path d="M6.47343 63.9562H17.1203V68.9562H14.1719C13.7575 68.9562 13.36 69.1209 13.067 69.4139C12.774 69.7069 12.6094 70.1044 12.6094 70.5187V84.8281C12.6114 86.3836 13.2302 87.8747 14.3301 88.9746C15.43 90.0744 16.9211 90.6932 18.4766 90.6953H18.8891C20.4445 90.6932 21.9356 90.0744 23.0355 88.9746C24.1354 87.8747 24.7542 86.3836 24.7562 84.8281V74.5047H92.0016C93.1537 74.5034 94.2583 74.0447 95.0722 73.2292C95.8862 72.4138 96.343 71.3084 96.3422 70.1563V16.0594C96.3409 14.9086 95.8832 13.8052 95.0695 12.9915C94.2557 12.1777 93.1524 11.72 92.0016 11.7188H21.55C20.3755 11.72 19.2496 12.1871 18.4191 13.0175C17.5886 13.848 17.1215 14.974 17.1203 16.1484V30.1562L3.03281 57.6406C2.68087 58.3291 2.5105 59.096 2.53785 59.8687C2.56519 60.6414 2.78933 61.3944 3.18906 62.0562C3.52594 62.6295 4.00549 63.1058 4.58104 63.4388C5.15659 63.7717 5.80854 63.95 6.47343 63.9562ZM21.6297 72.0812V74.9359H15.7344V72.0766L21.6297 72.0812ZM18.8875 87.575H18.475C18.3906 87.575 18.3187 87.5578 18.2281 87.55C18.2016 87.55 18.1812 87.525 18.1547 87.5203C17.9832 87.4854 17.8149 87.4362 17.6516 87.3734C17.5494 87.3461 17.4447 87.3299 17.3391 87.325C16.8603 87.1065 16.4545 86.755 16.1699 86.3123C15.8854 85.8696 15.7342 85.3544 15.7344 84.8281V78.0563H21.6312V84.8281C21.6304 85.5551 21.3412 86.2522 20.8272 86.7662C20.3131 87.2803 19.6161 87.5695 18.8891 87.5703L18.8875 87.575ZM58.2937 33.0438V29.7625H74.1922V41.5531H42.0047V33.0406C42.0047 32.6813 42.1474 32.3368 42.4015 32.0827C42.6555 31.8287 43.0001 31.6859 43.3594 31.6859H43.8156C44.1748 31.6863 44.5191 31.8292 44.7731 32.0832C45.027 32.3371 45.1699 32.6815 45.1703 33.0406C45.1703 34.7811 45.8617 36.4503 47.0924 37.681C48.3231 38.9117 49.9923 39.6031 51.7328 39.6031C53.4733 39.6031 55.1425 38.9117 56.3732 37.681C57.6039 36.4503 58.2953 34.7811 58.2953 33.0406L58.2937 33.0438ZM93.2156 29.7625V41.5531H77.3172V29.7578L93.2156 29.7625ZM75.7547 56.4641H58.2953V44.6734H93.2172V56.4641H75.7547ZM42.0047 56.4641V44.6734H55.1656V56.4641H42.0047ZM42.0047 59.5891H74.1922V71.3797H42.0047V59.5891ZM93.2172 70.1563C93.2168 70.4787 93.0886 70.7878 92.8608 71.0159C92.6329 71.2441 92.324 71.3726 92.0016 71.3734H77.3141V59.5891H93.2172V70.1563ZM93.2172 16.0531V26.6266H58.2953V14.8438H92.0016C92.3238 14.8442 92.6328 14.9724 92.8607 15.2003C93.0886 15.4281 93.2168 15.7371 93.2172 16.0594V16.0531ZM21.55 14.8438H55.1703V33.0406C55.1703 33.9523 54.8081 34.8266 54.1635 35.4713C53.5188 36.116 52.6445 36.4781 51.7328 36.4781C50.8211 36.4781 49.9468 36.116 49.3021 35.4713C48.6575 34.8266 48.2953 33.9523 48.2953 33.0406C48.2941 31.8529 47.8217 30.7142 46.9819 29.8744C46.142 29.0345 45.0033 28.5622 43.8156 28.5609H43.3594C42.1717 28.5622 41.033 29.0345 40.1931 29.8744C39.3533 30.7142 38.8809 31.8529 38.8797 33.0406V71.3797H24.7562V70.5141C24.7562 70.0997 24.5916 69.7022 24.2986 69.4092C24.0056 69.1162 23.6081 68.9516 23.1937 68.9516H20.2453V63.9516H30.8922C31.5565 63.9448 32.2078 63.7662 32.7828 63.4333C33.3578 63.1004 33.8368 62.6244 34.1734 62.0516C34.5732 61.3897 34.7973 60.6367 34.8246 59.864C34.852 59.0913 34.6816 58.3244 34.3297 57.6359L20.2453 30.1562V16.1562C20.2445 15.9843 20.2776 15.8139 20.3428 15.6548C20.408 15.4957 20.5039 15.351 20.6251 15.2291C20.7463 15.1072 20.8904 15.0104 21.0491 14.9442C21.2079 14.8781 21.3781 14.844 21.55 14.8438ZM5.81406 59.0625L18.6828 33.9484L31.5516 59.0625C31.6584 59.2748 31.7101 59.5106 31.7019 59.7482C31.6937 59.9857 31.6259 60.2174 31.5047 60.4219C31.4458 60.5363 31.3586 60.6337 31.2514 60.7048C31.1441 60.7759 31.0205 60.8184 30.8922 60.8281H20.2453V54.5937H17.1203V60.8312H6.47343C6.34514 60.8215 6.22148 60.779 6.11426 60.7079C6.00704 60.6368 5.91982 60.5394 5.86093 60.425C5.7392 60.2201 5.67109 59.9879 5.66289 59.7498C5.6547 59.5116 5.70669 59.2752 5.81406 59.0625Z" fill="#03C19D"/>
</svg>
