<svg width="24" height="24" viewBox="0 0 24 24" fill="none" xmlns="http://www.w3.org/2000/svg">
<path d="M10.475 16.9251L17.825 9.5751L16.175 7.9251L10.475 13.6251L7.7 10.8501L6.075 12.5001L10.475 16.9251ZM12.0035 22.6251C10.5345 22.6251 9.15427 22.3494 7.86282 21.798C6.57136 21.2466 5.44288 20.4882 4.4774 19.5227C3.51192 18.5572 2.75348 17.4299 2.2021 16.1407C1.6507 14.8516 1.375 13.4725 1.375 12.0035C1.375 10.5179 1.6507 9.12937 2.2021 7.83792C2.75348 6.54646 3.51061 5.42171 4.47347 4.4637C5.43634 3.50566 6.56297 2.74722 7.85335 2.18837C9.14373 1.62952 10.5241 1.3501 11.9945 1.3501C13.4815 1.3501 14.8717 1.62888 16.1652 2.18645C17.4586 2.744 18.5837 3.50068 19.5404 4.4565C20.4972 5.41231 21.2547 6.53629 21.8128 7.82842C22.3709 9.12054 22.65 10.5111 22.65 12.0001C22.65 13.4714 22.3706 14.8526 21.8117 16.1438C21.2529 17.435 20.4944 18.5623 19.5364 19.5257C18.5784 20.4892 17.4548 21.2466 16.1656 21.798C14.8765 22.3494 13.4891 22.6251 12.0035 22.6251ZM12 20.2751C14.3 20.2751 16.2542 19.472 17.8625 17.8658C19.4708 16.2596 20.275 14.3044 20.275 12.0001C20.275 9.7001 19.4708 7.74593 17.8625 6.1376C16.2542 4.52926 14.2958 3.7251 11.9875 3.7251C9.69583 3.7251 7.74583 4.52926 6.1375 6.1376C4.52917 7.74593 3.725 9.70426 3.725 12.0126C3.725 14.3043 4.5281 16.2543 6.1343 17.8626C7.7405 19.4709 9.69573 20.2751 12 20.2751Z" fill="#11C5A2"/>
</svg>
