<svg width="100" height="100" viewBox="0 0 100 100" fill="none" xmlns="http://www.w3.org/2000/svg">
<path d="M96.805 51.6097C97.1574 51.8743 97.5792 52.0093 98.0037 52.0093C98.3079 52.0093 98.6136 51.9399 98.8962 51.7986C99.5725 51.4607 100 50.7692 100 50.0127V41.993C100 41.3646 99.7043 40.7731 99.2019 40.396L89.9303 33.4382C89.9313 33.4128 89.9341 33.3876 89.9341 33.3619V16.2039C89.9341 15.1013 89.0401 14.2073 87.9375 14.2073H74.107C73.0044 14.2073 72.1105 15.1013 72.1105 16.2039V20.0657L51.2843 4.43686C50.574 3.90402 49.5977 3.90402 48.8874 4.43686L0.969832 40.3958C0.467196 40.7729 0.171705 41.3643 0.171705 41.9928V50.0125C0.171705 50.7689 0.599219 51.4602 1.27556 51.7984C1.95189 52.1366 2.7615 52.0637 3.36671 51.6095L4.16484 51.0105V91.9693H1.99657C0.893962 91.9693 0 92.8633 0 93.9659C0 95.0685 0.893962 95.9624 1.99657 95.9624H97.9982C99.1008 95.9624 99.9948 95.0685 99.9948 93.9659C99.9948 92.8633 99.1008 91.9693 97.9982 91.9693H96.0069V51.0105L96.805 51.6097ZM76.1036 18.2004H85.9409V30.4446L76.1036 23.0623V18.2004ZM4.16484 42.9908L50.0859 8.53007L96.0069 42.9908V46.0183L51.284 12.4568C50.9289 12.1903 50.5074 12.057 50.0856 12.057C49.6638 12.057 49.2423 12.1903 48.8872 12.4568L4.16484 46.0183V42.9908ZM57.9104 91.9695H42.0844C42.0909 91.9044 42.0943 91.8385 42.0943 91.7719V58.2151H57.9004V91.7719C57.9004 91.8385 57.9039 91.9044 57.9104 91.9695ZM92.0137 48.4427V91.9693H61.8836C61.8901 91.9042 61.8935 91.8383 61.8935 91.7716V56.2185C61.8935 55.1159 60.9996 54.222 59.897 54.222H40.0978C38.9952 54.222 38.1012 55.1159 38.1012 56.2185V91.7719C38.1012 91.8385 38.1047 91.9044 38.1112 91.9695H8.15797V48.4427C8.15797 48.3062 8.14399 48.1729 8.11804 48.0439L50.0859 16.5498L92.0537 48.0439C92.0275 48.1729 92.0137 48.3062 92.0137 48.4427Z" fill="#03C19D"/>
<path d="M46.1274 73.9735C45.6033 73.9735 45.0892 74.1881 44.7176 74.5575C44.3457 74.9294 44.1333 75.446 44.1333 75.9701C44.1333 76.4967 44.3457 77.0108 44.7176 77.3826C45.0892 77.7545 45.6036 77.9666 46.1274 77.9666C46.654 77.9666 47.1681 77.7545 47.54 77.3826C47.9118 77.0108 48.1265 76.4967 48.1265 75.9701C48.1265 75.446 47.9121 74.9319 47.54 74.5575C47.1681 74.1884 46.6543 73.9735 46.1274 73.9735Z" fill="#03C19D"/>
<path d="M39.9885 38.1038C39.9885 43.6228 44.4782 48.1125 49.9972 48.1125C55.5163 48.1125 60.006 43.6225 60.006 38.1038C60.006 32.585 55.516 28.095 49.9972 28.095C44.4785 28.095 39.9885 32.5847 39.9885 38.1038ZM49.9972 44.1194C47.38 44.1194 45.1491 42.4388 44.3238 40.1003H55.671C54.8457 42.4388 52.6145 44.1194 49.9972 44.1194ZM55.671 36.1072H44.3238C45.1491 33.769 47.38 32.0881 49.9972 32.0881C52.6145 32.0881 54.8457 33.769 55.671 36.1072Z" fill="#03C19D"/>
<path d="M32.1529 78.1096V56.2185C32.1529 55.1159 31.259 54.2219 30.1564 54.2219H16.1492C15.0466 54.2219 14.1527 55.1159 14.1527 56.2185V78.1108C13.0768 78.1415 12.2132 79.021 12.2132 80.1044C12.2132 81.207 13.1072 82.101 14.2098 82.101H16.1492H30.1564H32.1165C33.2191 82.101 34.1131 81.207 34.1131 80.1044C34.1133 79.014 33.2386 78.1293 32.1529 78.1096ZM28.1598 58.2151V62.2082H18.1458V58.2151H28.1598ZM18.1458 78.1078V66.2013H28.1598V78.1078H18.1458Z" fill="#03C19D"/>
<path d="M68.0652 82.101H70.0151H84.0222H85.9721C87.0747 82.101 87.9687 81.207 87.9687 80.1044C87.9687 79.0175 87.0997 78.1353 86.0188 78.1101V56.2185C86.0188 55.1159 85.1248 54.2219 84.0222 54.2219H70.0151C68.9125 54.2219 68.0185 55.1159 68.0185 56.2185V78.1101C66.9376 78.1353 66.0686 79.0175 66.0686 80.1044C66.0686 81.207 66.9628 82.101 68.0652 82.101ZM72.0116 78.1078V66.2013H82.0257V78.1078H72.0116ZM82.0257 58.2151V62.2082H72.0116V58.2151H82.0257Z" fill="#03C19D"/>
</svg>
