<svg width="20" height="20" viewBox="0 0 20 20" fill="none" xmlns="http://www.w3.org/2000/svg">
<path d="M10.0018 9.79169C10.4034 9.79169 10.7465 9.64871 11.0312 9.36275C11.316 9.0768 11.4583 8.73305 11.4583 8.3315C11.4583 7.92996 11.3153 7.58683 11.0294 7.3021C10.7434 7.01738 10.3997 6.87502 9.99814 6.87502C9.5966 6.87502 9.25347 7.018 8.96874 7.30396C8.68402 7.5899 8.54166 7.93365 8.54166 8.33521C8.54166 8.73675 8.68464 9.07988 8.9706 9.3646C9.25654 9.64933 9.60029 9.79169 10.0018 9.79169ZM9.99999 18.3334C7.76388 16.4306 6.09374 14.6632 4.98958 13.0313C3.88541 11.3993 3.33333 9.88891 3.33333 8.50002C3.33333 6.41669 4.00347 4.75696 5.34374 3.52085C6.68402 2.28474 8.23611 1.66669 9.99999 1.66669C11.7639 1.66669 13.316 2.28474 14.6562 3.52085C15.9965 4.75696 16.6667 6.41669 16.6667 8.50002C16.6667 9.88891 16.1146 11.3993 15.0104 13.0313C13.9062 14.6632 12.2361 16.4306 9.99999 18.3334Z" fill="#03C19D"/>
</svg>
