<svg width="36" height="36" viewBox="0 0 36 36" fill="none" xmlns="http://www.w3.org/2000/svg">
<path d="M5.44077 30.53C4.62809 30.53 3.92982 30.238 3.34594 29.6541C2.76204 29.0703 2.47009 28.372 2.47009 27.5593V8.44084C2.47009 7.62234 2.76204 6.91906 3.34594 6.33101C3.92982 5.74299 4.62809 5.44897 5.44077 5.44897H30.5592C31.3777 5.44897 32.081 5.74299 32.6691 6.33101C33.2571 6.91906 33.5511 7.62234 33.5511 8.44084V27.5593C33.5511 28.372 33.2571 29.0703 32.6691 29.6541C32.081 30.238 31.3777 30.53 30.5592 30.53H5.44077ZM18 19.3534L30.5592 10.9909V8.44084L18 16.6158L5.44077 8.44084V10.9909L18 19.3534Z" fill="white"/>
</svg>
