<svg width="100" height="100" viewBox="0 0 100 100" fill="none" xmlns="http://www.w3.org/2000/svg">
<path d="M96.6836 99.2328H3.31635C2.71243 99.2328 2.22229 98.7438 2.22229 98.1387V58.6879C2.22229 58.0829 2.71243 57.5939 3.31635 57.5939H96.6836C97.2887 57.5939 97.7777 58.0829 97.7777 58.6879V98.1387C97.7777 98.7438 97.2887 99.2328 96.6836 99.2328ZM4.41041 97.0447H95.5896V59.782H4.41041V97.0447Z" fill="#03C19D"/>
<path d="M27.9842 76.8855H16.9998C16.3958 76.8855 15.9057 76.3964 15.9057 75.7914V58.6879C15.9057 58.0829 16.3958 57.5939 16.9998 57.5939H27.9842C28.5881 57.5939 29.0782 58.0829 29.0782 58.6879V75.7914C29.0782 76.3964 28.5892 76.8855 27.9842 76.8855ZM18.0938 74.6973H26.8901V59.782H18.0938V74.6973Z" fill="#03C19D"/>
<path d="M83.0002 76.8855H72.0158C71.4108 76.8855 70.9218 76.3964 70.9218 75.7914V58.6879C70.9218 58.0829 71.4108 57.5939 72.0158 57.5939H83.0002C83.6052 57.5939 84.0943 58.0829 84.0943 58.6879V75.7914C84.0943 76.3964 83.6052 76.8855 83.0002 76.8855ZM73.1099 74.6973H81.9061V59.782H73.1099V74.6973Z" fill="#03C19D"/>
<path d="M34.7641 59.782H24.0466C23.4427 59.782 22.9526 59.293 22.9526 58.6879V45.8327C22.9526 45.2288 23.4427 44.7386 24.0466 44.7386H34.7641C35.368 44.7386 35.8581 45.2288 35.8581 45.8327V58.6879C35.8581 59.293 35.368 59.782 34.7641 59.782ZM25.1407 57.5939H33.67V46.9268H25.1407V57.5939Z" fill="#03C19D"/>
<path d="M32.2171 46.9279H26.3497C25.7457 46.9279 25.2556 46.4378 25.2556 45.8338V16.4134H24.0478C23.4438 16.4134 22.9537 15.9233 22.9537 15.3193V15.2362C22.1342 13.7789 20.259 12.7538 17.9888 12.5404C15.8128 12.3369 12.9168 12.8872 11.3173 15.0535C11.0361 15.4342 10.5394 15.5907 10.0952 15.443C9.64662 15.2953 9.34247 14.8762 9.34247 14.4036C9.34247 6.88412 15.4605 0.767212 22.98 0.767212H34.6525C35.2564 0.767212 35.7466 1.25735 35.7466 1.86127V2.18731C35.7466 2.48708 35.8691 2.76278 36.0912 2.96518C36.3122 3.16759 36.5978 3.26714 36.9052 3.23323C37.4347 3.1829 37.8494 2.68292 37.8494 2.09431V1.86127C37.8494 1.25735 38.3395 0.767212 38.9434 0.767212H42.2004C44.0385 0.767212 45.534 2.2628 45.534 4.10082V12.1652C45.534 14.0032 44.0385 15.4988 42.2004 15.4988H38.9434C38.3395 15.4988 37.8494 15.0086 37.8494 14.4047V14.0787C37.8494 13.7789 37.7268 13.5032 37.5047 13.3008C37.2826 13.0984 36.9949 13.0021 36.6918 13.0327C36.1623 13.0831 35.7466 13.5831 35.7466 14.1706V15.3193C35.7466 15.9233 35.2564 16.4134 34.6525 16.4134H33.3112V45.8338C33.3112 46.4378 32.821 46.9279 32.2171 46.9279ZM27.4437 44.7398H31.1231V15.3193C31.1231 14.7154 31.6132 14.2253 32.2171 14.2253H33.5584V14.1706C33.5584 12.4671 34.8429 11.0109 36.484 10.8545C37.392 10.7691 38.3034 11.0689 38.9762 11.6816C39.4576 12.1181 39.7924 12.6881 39.9445 13.3106H42.2004C42.8317 13.3106 43.3459 12.7964 43.3459 12.1652V4.10082C43.3448 3.46955 42.8306 2.95534 42.1994 2.95534H39.9248C39.5791 4.26602 38.4664 5.28241 37.112 5.41151C36.2039 5.49684 35.2925 5.19707 34.6186 4.5844C34.1383 4.14677 33.8035 3.57676 33.6514 2.95534H22.98C17.6005 2.95534 13.0754 6.6839 11.8555 11.6925C13.6213 10.6335 15.8598 10.1455 18.1945 10.361C21.2502 10.6499 23.7294 12.0853 24.8957 14.2253H26.3508C26.9547 14.2253 27.4448 14.7154 27.4448 15.3193V44.7398H27.4437Z" fill="#03C19D"/>
<path d="M54.6552 59.7821H46.1959C45.592 59.7821 45.1019 59.2931 45.1019 58.688V42.0703C41.0287 40.054 38.4368 35.914 38.4368 31.3255C38.4368 26.7677 40.9751 22.6638 45.0614 20.6136C45.3983 20.4429 45.8032 20.4604 46.127 20.6606C46.4497 20.8597 46.6467 21.212 46.6467 21.5917V28.8759C46.6467 30.9601 48.3425 32.6559 50.4267 32.6559C52.5108 32.6559 54.2066 30.9601 54.2066 28.8759V21.5917C54.2066 21.212 54.4036 20.8597 54.7263 20.6606C55.0513 20.4615 55.4528 20.4429 55.7919 20.6136C59.8783 22.6638 62.4176 26.7677 62.4176 31.3255C62.4176 35.9129 59.8247 40.054 55.7515 42.0703V58.688C55.7493 59.2931 55.2602 59.7821 54.6552 59.7821ZM47.2889 57.594H53.5601V41.3679C53.5601 40.9281 53.8237 40.531 54.2285 40.3603C57.8718 38.8242 60.2251 35.2773 60.2251 31.3255C60.2251 28.2315 58.7919 25.3924 56.3915 23.5588V28.8748C56.3915 32.1658 53.7143 34.8429 50.4234 34.8429C47.1324 34.8429 44.4553 32.1658 44.4553 28.8748V23.5588C42.0549 25.3924 40.6228 28.2315 40.6228 31.3255C40.6228 35.2784 42.9761 38.8242 46.6193 40.3603C47.0252 40.531 47.2878 40.9281 47.2878 41.3679L47.2889 57.594Z" fill="#03C19D"/>
<path d="M73.6372 59.782H66.9974C66.3923 59.782 65.9033 59.2929 65.9033 58.6879V29.2609L64.0521 25.6254C63.9176 25.3617 63.8957 25.0564 63.9898 24.7775L67.2413 15.2022C67.3923 14.758 67.8092 14.4594 68.2774 14.4594H72.3583C72.8276 14.4594 73.2445 14.758 73.3944 15.2022L76.6459 24.7775C76.74 25.0564 76.7181 25.3628 76.5835 25.6254L74.7313 29.2609V58.6879C74.7313 59.2929 74.2422 59.782 73.6372 59.782ZM68.0914 57.5939H72.5432V28.9983C72.5432 28.8255 72.5836 28.6559 72.6624 28.5016L74.4239 25.0433L71.5738 16.6475H69.0608L66.2107 25.0433L67.9711 28.5016C68.0498 28.6559 68.0903 28.8255 68.0903 28.9983L68.0914 57.5939Z" fill="#03C19D"/>
<path d="M18.5337 59.782H9.73413C9.24618 59.782 8.81621 59.4582 8.68274 58.9889L2.58771 37.6776C2.19713 36.31 2.36124 34.8735 3.0516 33.6296C3.74195 32.3867 4.8754 31.4863 6.24298 31.0957C7.60946 30.7041 9.04706 30.8682 10.291 31.5596C11.5339 32.25 12.4343 33.3834 12.8249 34.751L19.5862 58.3882C19.6803 58.7186 19.6146 59.0742 19.4078 59.3488C19.2011 59.6212 18.8772 59.782 18.5337 59.782ZM10.5591 57.5939H17.0829L10.721 35.3516C10.4912 34.5464 9.9606 33.879 9.22867 33.472C8.49675 33.0661 7.64994 32.9688 6.84362 33.1985C6.03839 33.4283 5.37101 33.9589 4.96402 34.6908C4.55703 35.4227 4.46075 36.2696 4.6905 37.0759L10.5591 57.5939Z" fill="#03C19D"/>
<path d="M8.08102 38.6218C7.6051 38.6218 7.16748 38.3089 7.02963 37.8286L6.72657 36.7685C6.56027 36.1875 6.89615 35.5814 7.4771 35.4151C8.05914 35.2477 8.66306 35.5847 8.83045 36.1657L9.13351 37.2258C9.29981 37.8068 8.96393 38.4129 8.38298 38.5792C8.28233 38.6076 8.18058 38.6218 8.08102 38.6218Z" fill="#03C19D"/>
<path d="M87.1784 59.782H78.473C78.1371 59.782 77.8198 59.6278 77.613 59.3641C77.4062 59.1004 77.3308 58.7558 77.4095 58.4298L80.5221 45.5931C78.1666 43.1512 77.2071 39.6677 78.0135 36.3439C78.6393 33.7641 80.2322 31.5804 82.5002 30.1986C84.7682 28.8157 87.4388 28.3978 90.0175 29.0257C95.3445 30.3167 98.6289 35.7017 97.3368 41.0298C96.5316 44.3536 94.082 47.011 90.8698 48.1018L88.2418 58.9451C88.1237 59.4374 87.6839 59.782 87.1784 59.782ZM79.8646 57.5939H86.3185L88.8917 46.9804C88.9858 46.5909 89.2845 46.2846 89.6718 46.1817C92.4201 45.4465 94.5415 43.2748 95.211 40.5156C96.2176 36.3603 93.6564 32.1613 89.5022 31.1537C87.4913 30.6668 85.4093 30.9907 83.6391 32.0683C81.8711 33.146 80.6283 34.8483 80.1403 36.8614C79.4718 39.6206 80.3635 42.5232 82.4685 44.4345C82.765 44.7037 82.8908 45.1128 82.7967 45.5023L79.8646 57.5939Z" fill="#03C19D"/>
<path d="M87.6839 43.6227C87.2944 43.6227 86.9017 43.5768 86.5133 43.4816C85.2321 43.1709 84.1501 42.3809 83.4641 41.2552C82.7781 40.1294 82.5724 38.8055 82.8832 37.5255C83.1928 36.2454 83.9838 35.1623 85.1085 34.4763C86.2332 33.7915 87.5559 33.5836 88.8381 33.8943C90.1193 34.205 91.2013 34.9949 91.8873 36.1196C92.5733 37.2443 92.779 38.5692 92.4682 39.8493C92.1586 41.1293 91.3676 42.2136 90.2429 42.8995C89.4596 43.3776 88.5799 43.6227 87.6839 43.6227ZM87.6708 35.9435C87.173 35.9435 86.6839 36.0802 86.2474 36.3461C85.6216 36.7279 85.1818 37.3297 85.0089 38.0419C84.8361 38.7541 84.9509 39.4915 85.3328 40.1173C85.7146 40.7431 86.3163 41.1829 87.0286 41.3558C87.7419 41.5276 88.4782 41.4149 89.104 41.032C89.7298 40.6501 90.1696 40.0484 90.3425 39.3362C90.5153 38.6239 90.4005 37.8865 90.0186 37.2618C89.6368 36.6371 89.0351 36.1962 88.3228 36.0233C88.1062 35.9686 87.8885 35.9435 87.6708 35.9435Z" fill="#03C19D"/>
</svg>
