<svg width="100" height="100" viewBox="0 0 100 100" fill="none" xmlns="http://www.w3.org/2000/svg">
<path d="M91.7969 46.875V25C91.7969 24.5703 91.5625 24.1797 91.1914 23.9648L50.7617 1.50391C50.4102 1.30859 49.9609 1.30859 49.6094 1.50391L32.2266 11.4648C31.8555 11.6797 31.6406 12.0703 31.6406 12.5V16.9922L27.1094 14.5898C26.7578 14.3945 26.3477 14.3945 25.9961 14.5898L8.80859 23.9648C8.4375 24.1797 8.20312 24.5703 8.20312 25V46.875C8.20312 47.3047 8.4375 47.6953 8.82813 47.9102L12.7539 50L8.82813 52.0898C8.4375 52.2852 8.20312 52.6953 8.20312 53.125V75C8.20312 75.4297 8.4375 75.8203 8.80859 76.0352L25.9961 85.4102C26.3477 85.6055 26.7578 85.6055 27.1094 85.4102L31.6406 83.0078V87.5C31.6406 87.9297 31.875 88.3203 32.2461 88.5352L49.4336 97.9102C49.7852 98.1055 50.1953 98.1055 50.5469 97.9102L91.1719 76.0352C91.543 75.8398 91.7969 75.4297 91.7969 75V53.125C91.7969 52.6953 91.5625 52.3047 91.1914 52.0898L87.3828 50L91.1914 47.8906C91.5625 47.6953 91.7969 47.3047 91.7969 46.875ZM50.1953 3.88672L88.2031 25L73.4375 33.0469L35.2344 12.4609L50.1953 3.88672ZM51.1719 47.5781L66.0156 39.4922V58.6914L51.1719 66.7969V47.5781ZM68.3594 37.5C68.3594 37.0703 68.125 36.6797 67.7539 36.4648L33.9844 18.2422V14.4727L72.2656 35.0781V54.2969L68.3594 52.1875V37.5ZM26.5625 16.9531L64.7266 37.5L50 45.5469L11.8359 25L26.5625 16.9531ZM10.5469 46.1719V26.9727L48.8281 47.5781V66.7969L10.5469 46.1719ZM15.2344 51.3281L30.0195 59.2969L26.5625 61.1523L11.8359 53.125L15.2344 51.3281ZM10.5469 55.0977L25.3906 63.2031V82.4023L10.5469 74.2969V55.0977ZM27.7344 82.4219V63.2031L32.5 60.6445L36.0547 62.5586L32.2656 64.5898C31.8945 64.7852 31.6406 65.1953 31.6406 65.625V80.3516L27.7344 82.4219ZM33.9844 67.5977L49.0039 75.8008L48.8281 94.9219L33.9844 86.7969V67.5977ZM51.1914 94.9023L51.3672 75.6055L89.4531 55.0781V74.2969L51.1914 94.9023ZM88.1836 53.1055L50 73.6719L35.2734 65.625L38.5156 63.8867L49.4531 69.7852C49.8047 69.9805 50.2148 69.9805 50.5664 69.7852L67.7539 60.4102C68.125 60.1953 68.3594 59.8047 68.3594 59.375V54.8438L72.8906 57.2852C73.2422 57.4805 73.6523 57.4805 74.0039 57.2852L84.9609 51.3477L88.1836 53.1055ZM74.6094 54.2773V35.0781L89.4531 26.9922V46.1914L74.6094 54.2773Z" fill="#03C19D"/>
<path d="M57.4023 36.2695L27.1289 20.0586C26.7773 19.8633 26.3672 19.8633 26.0156 20.0586L19.1797 23.7695C18.6133 24.082 18.3984 24.7852 18.7109 25.3516C18.8086 25.5664 18.9648 25.7227 19.1601 25.8398L49.4336 42.2461C49.7851 42.4414 50.2344 42.4414 50.5859 42.2266L57.4219 38.3203C58.2226 37.8906 58.1836 36.6797 57.4023 36.2695ZM25.3906 23.0664V26.543L22.1875 24.8047L25.3906 23.0664ZM49.9804 39.8633L27.7344 27.8125V23.0469L54.414 37.3242L49.9804 39.8633Z" fill="#03C19D"/>
<path d="M42.5976 13.3398L72.8711 29.7461C73.2226 29.9414 73.6719 29.9414 74.0234 29.7266L80.8594 25.8203C81.6601 25.3906 81.6211 24.1797 80.8398 23.7695L50.5664 7.55859C50.2148 7.36328 49.8047 7.36328 49.4531 7.55859L42.6172 11.2695C42.0508 11.582 41.8359 12.2852 42.1484 12.8516C42.2461 13.0664 42.4023 13.2227 42.5976 13.3398ZM73.4179 27.3633L51.1719 15.3125V10.5469L77.8515 24.8438L73.4179 27.3633ZM48.8281 10.5664V14.043L45.625 12.3047L48.8281 10.5664Z" fill="#03C19D"/>
</svg>
