<svg width="100" height="100" viewBox="0 0 100 100" fill="none" xmlns="http://www.w3.org/2000/svg">
<path d="M78.6914 23.9844L50.5664 8.35938C50.2148 8.16406 49.7852 8.16406 49.4336 8.35938L21.3086 23.9844C20.7422 24.2969 20.5469 25.0195 20.8594 25.5859C20.957 25.7812 21.1328 25.9375 21.3086 26.0352L49.4336 41.6602C49.7852 41.8555 50.2148 41.8555 50.5664 41.6602L78.6914 26.0352C79.2578 25.7227 79.4531 25 79.1406 24.4336C79.043 24.2383 78.8867 24.082 78.6914 23.9844ZM48.8281 11.3672V38.6328L24.2773 25L48.8281 11.3672ZM51.1719 38.6328V11.3672L75.7031 25L51.1719 38.6328Z" fill="white"/>
<path d="M91.1719 23.9648L50.5469 2.08984C50.1953 1.89453 49.7852 1.89453 49.4336 2.08984L8.80859 23.9648C8.4375 24.1602 8.18359 24.5703 8.18359 25V75C8.18359 75.4297 8.41797 75.8203 8.80859 76.0351L49.4336 97.9101C49.7852 98.1055 50.1953 98.1055 50.5469 97.9101L91.1719 76.0351C91.543 75.8398 91.7969 75.4297 91.7969 75V25C91.7969 24.5703 91.5625 24.1797 91.1719 23.9648ZM50 4.45312L88.1445 25L50 45.5469L11.8555 25L50 4.45312ZM10.5469 26.9727L48.8281 47.5781V94.9219L10.5469 74.2969V26.9727ZM51.1719 94.9219V47.5781L89.4531 26.9727V74.3164L51.1719 94.9219Z" fill="white"/>
</svg>
