<svg width="36" height="36" viewBox="0 0 36 36" fill="none" xmlns="http://www.w3.org/2000/svg">
<path d="M29.8337 31.9876C26.713 31.9876 23.6147 31.2235 20.5386 29.6952C17.4625 28.167 14.6962 26.1781 12.2397 23.7286C9.78314 21.2792 7.79074 18.5129 6.26247 15.4297C4.73422 12.3465 3.97009 9.2517 3.97009 6.1452C3.97009 5.52887 4.18206 5.00875 4.60598 4.58482C5.02988 4.16092 5.54999 3.94897 6.16632 3.94897H11.4163C12.0065 3.94897 12.4965 4.11365 12.8862 4.443C13.2758 4.77235 13.5364 5.243 13.668 5.85495L14.6805 10.2408C14.7729 10.7745 14.7631 11.2417 14.6511 11.6422C14.5392 12.0428 14.3267 12.3854 14.0136 12.6702L10.1576 16.3305C11.4729 18.4577 12.9215 20.3025 14.5035 21.865C16.0856 23.4275 17.8636 24.7522 19.8375 25.8392L23.506 22.1006C23.869 21.7267 24.266 21.4693 24.697 21.3286C25.128 21.1878 25.5908 21.1761 26.0853 21.2935L30.1027 22.2261C30.7038 22.3718 31.1753 22.6511 31.5171 23.0642C31.859 23.4772 32.0299 23.9897 32.0299 24.6017V29.7702C32.0299 30.4006 31.818 30.9278 31.394 31.3517C30.9701 31.7757 30.45 31.9876 29.8337 31.9876Z" fill="white"/>
</svg>
