<svg width="20" height="20" viewBox="0 0 20 20" fill="none" xmlns="http://www.w3.org/2000/svg">
<path d="M16.5743 17.7709C14.8406 17.7709 13.1193 17.3463 11.4103 16.4973C9.70141 15.6483 8.16457 14.5434 6.79984 13.1825C5.4351 11.8217 4.32821 10.2849 3.47917 8.57204C2.63014 6.85916 2.20563 5.13981 2.20563 3.41397C2.20563 3.07157 2.32338 2.78261 2.5589 2.5471C2.7944 2.3116 3.08335 2.19385 3.42575 2.19385H6.34242C6.67032 2.19385 6.94252 2.28533 7.159 2.46831C7.37549 2.65128 7.52027 2.91275 7.59334 3.25272L8.15584 5.68933C8.20717 5.98583 8.20174 6.24534 8.13954 6.46787C8.07734 6.6904 7.95927 6.88076 7.78536 7.03897L5.64315 9.07249C6.37383 10.2542 7.17863 11.2791 8.05754 12.1472C8.93646 13.0153 9.92422 13.7512 11.0208 14.3551L13.0589 12.2781C13.2606 12.0703 13.4812 11.9274 13.7206 11.8492C13.96 11.771 14.2171 11.7645 14.4919 11.8297L16.7238 12.3478C17.0577 12.4287 17.3196 12.5839 17.5095 12.8134C17.6995 13.0429 17.7944 13.3276 17.7944 13.6676V16.539C17.7944 16.8892 17.6767 17.1821 17.4411 17.4176C17.2056 17.6531 16.9167 17.7709 16.5743 17.7709Z" fill="#03C19D"/>
</svg>
