<svg width="108" height="108" viewBox="0 0 108 108" fill="none" xmlns="http://www.w3.org/2000/svg">
<g clip-path="url(#clip0_81_9)" filter="url(#filter0_d_81_9)">
<path fill-rule="evenodd" clip-rule="evenodd" d="M75.4285 32.1429H78.9999V39.2857H75.4285V32.1429Z" fill="#03C19D"/>
<path fill-rule="evenodd" clip-rule="evenodd" d="M64.7143 42.8571H89.7144V46.4285H64.7143V42.8571Z" fill="#03C19D"/>
<path fill-rule="evenodd" clip-rule="evenodd" d="M76.0159 57.2446C76.9785 57.5838 77.9248 57.9142 78.9999 58.1929V50.0001H75.4285V57.0394L76.0159 57.2446Z" fill="#03C19D"/>
<path fill-rule="evenodd" clip-rule="evenodd" d="M60.6285 0.546409C60.2979 0.19701 59.838 -0.000654519 59.357 1.62837e-06C58.3708 1.62837e-06 57.5713 0.799517 57.5713 1.78571V57.1715C58.7217 56.6431 59.9169 56.2182 61.1427 55.9018V1.78571C61.1475 1.31984 60.9618 0.872186 60.6285 0.546409Z" fill="#03C19D"/>
<path fill-rule="evenodd" clip-rule="evenodd" d="M96.8572 1.78571C96.8619 1.31984 96.6761 0.872186 96.3429 0.546409C96.0124 0.19701 95.5524 -0.000654519 95.0715 1.62837e-06C94.0853 1.62837e-06 93.2858 0.799517 93.2858 1.78571V57.8571C93.8965 57.6642 94.4805 57.4588 95.0715 57.2518C95.6625 57.0446 96.2358 56.8429 96.8572 56.6429V1.78571Z" fill="#03C19D"/>
<path fill-rule="evenodd" clip-rule="evenodd" d="M53.9999 7.14282H47.3607C47.1625 7.76239 46.9572 8.34817 46.7554 8.92853C46.5536 9.50889 46.3394 10.1071 46.1465 10.7142H54.0001V7.14282H53.9999Z" fill="#03C19D"/>
<path fill-rule="evenodd" clip-rule="evenodd" d="M102.214 7.14282H100.429V10.7142H102.214C102.68 10.7177 103.127 10.533 103.454 10.2018C103.803 9.87092 104.001 9.41014 104 8.92853C104 7.94234 103.2 7.14282 102.214 7.14282Z" fill="#03C19D"/>
<path fill-rule="evenodd" clip-rule="evenodd" d="M64.7143 25.0001H89.7144V28.5715H64.7143V25.0001Z" fill="#03C19D"/>
<path fill-rule="evenodd" clip-rule="evenodd" d="M78.4857 0.546408C78.1552 0.19701 77.6952 -0.000654519 77.2142 1.62837e-06C76.228 1.62837e-06 75.4285 0.799517 75.4285 1.78571V3.57141H78.9999V1.78571C79.0047 1.31984 78.8188 0.872186 78.4857 0.546408Z" fill="#03C19D"/>
<path fill-rule="evenodd" clip-rule="evenodd" d="M75.4285 14.2856H78.9999V21.4285H75.4285V14.2856Z" fill="#03C19D"/>
<path fill-rule="evenodd" clip-rule="evenodd" d="M64.7143 7.14282H89.7144V10.7142H64.7143V7.14282Z" fill="#03C19D"/>
<path d="M102.634 60.2447C101.779 59.5656 100.66 59.3179 99.5982 59.5733C98.4703 59.8594 97.3586 60.2056 96.268 60.6108C92.856 61.9405 89.2147 62.5825 85.5537 62.5C81.8929 62.5825 78.2518 61.941 74.8395 60.6124C71.8037 59.4214 68.5603 58.8489 65.3003 58.9284C61.9757 59.1046 58.7591 60.1676 55.9841 62.0071C52.0912 64.1499 47.677 66.5893 42.5449 61.4535C37.4128 56.3176 39.8448 51.9 41.9931 48.007C43.8327 45.2302 44.8957 42.0118 45.0717 38.6856C45.1501 35.4297 44.5776 32.1908 43.3877 29.1589C42.0597 25.7464 41.4183 22.1054 41.5001 18.4446C41.4185 14.7838 42.0598 11.1429 43.3877 7.7304C43.7929 6.64267 44.1392 5.53395 44.4253 4.40898C44.6785 3.34422 44.4308 2.22204 43.7529 1.36265C43.0747 0.503429 42.041 0.00147633 40.9464 0H9.35712C6.39855 0 4 2.39855 4 5.35712V94.6427C4 97.6015 6.39855 99.9998 9.35712 99.9998H98.6427C101.601 99.9998 104 97.6013 104 94.6427V63.0535C104.002 61.9567 103.498 60.9202 102.634 60.2447ZM16.4999 76.7857C17.4861 76.7857 18.2856 77.5852 18.2856 78.5714C18.2856 79.5576 17.4861 80.3571 16.4999 80.3571C15.5137 80.3571 14.7142 79.5576 14.7142 78.5714C14.7142 77.5852 15.5137 76.7857 16.4999 76.7857ZM14.7142 94.6429C11.7555 94.6429 9.35712 92.2443 9.35712 89.2858C9.35712 86.327 11.7557 83.9286 14.7142 83.9286C17.6728 83.9286 20.0714 86.3272 20.0714 89.2858C20.0714 92.2443 17.673 94.6429 14.7142 94.6429ZM29 23.2143C28.0139 23.2143 27.2143 22.4148 27.2143 21.4286C27.2143 20.4424 28.0139 19.6429 29 19.6429C29.9862 19.6429 30.7857 20.4424 30.7857 21.4286C30.7857 22.4148 29.9862 23.2143 29 23.2143ZM32.5715 16.0714C29.6127 16.0714 27.2143 13.6728 27.2143 10.7142C27.2143 7.75566 29.6129 5.35712 32.5715 5.35712C35.53 5.35712 37.9286 7.75566 37.9286 10.7142C37.9286 13.6728 35.53 16.0714 32.5715 16.0714ZM85.4553 69.2661C84.8859 69.7117 84.104 69.7701 83.4749 69.4138C82.8456 69.0576 82.4933 68.3571 82.5825 67.6396C82.6718 66.9221 83.1847 66.3291 83.882 66.1379C84.5793 65.9464 85.3231 66.1945 85.766 66.766C86.3682 67.5428 86.2292 68.6603 85.4553 69.2661ZM89.0267 87.1231C88.4573 87.5688 87.6754 87.6272 87.0463 87.2709C86.4172 86.9146 86.0647 86.2142 86.1539 85.4967C86.2432 84.7792 86.7561 84.1862 87.4534 83.9949C88.1508 83.8035 88.8945 84.0515 89.3374 84.623C89.9396 85.4001 89.8006 86.5173 89.0267 87.1231ZM96.8572 69.6428C95.871 69.6428 95.0715 68.8433 95.0715 67.8571C95.0715 66.8709 95.871 66.0714 96.8572 66.0714C97.8434 66.0714 98.6429 66.8709 98.6429 67.8571C98.6429 68.8433 97.8434 69.6428 96.8572 69.6428Z" fill="#03C19D"/>
<path fill-rule="evenodd" clip-rule="evenodd" d="M102.214 42.8571H100.429V46.4285H102.214C102.68 46.432 103.127 46.2473 103.454 45.9161C103.803 45.5852 104.001 45.1244 104 44.6428C104 43.6566 103.2 42.8571 102.214 42.8571Z" fill="#03C19D"/>
<path d="M32.5714 12.4999C33.5577 12.4999 34.3571 11.7005 34.3571 10.7142C34.3571 9.72802 33.5577 8.92853 32.5714 8.92853C31.5852 8.92853 30.7857 9.72802 30.7857 10.7142C30.7857 11.7005 31.5852 12.4999 32.5714 12.4999Z" fill="#03C19D"/>
<path fill-rule="evenodd" clip-rule="evenodd" d="M102.214 25.0001H100.429V28.5715H102.214C102.68 28.5749 103.127 28.3902 103.454 28.059C103.803 27.7282 104.001 27.2674 104 26.7858C104 25.7996 103.2 25.0001 102.214 25.0001Z" fill="#03C19D"/>
<path d="M14.7142 91.0713C15.7005 91.0713 16.4999 90.2718 16.4999 89.2856C16.4999 88.2994 15.7005 87.4999 14.7142 87.4999C13.728 87.4999 12.9285 88.2994 12.9285 89.2856C12.9285 90.2718 13.728 91.0713 14.7142 91.0713Z" fill="#03C19D"/>
<path fill-rule="evenodd" clip-rule="evenodd" d="M53.9999 46.4285V42.8571H48.0964C47.778 44.0828 47.352 45.278 46.8232 46.4285H53.9999Z" fill="#03C19D"/>
<path fill-rule="evenodd" clip-rule="evenodd" d="M46.7554 27.9696C46.8251 28.1678 46.8946 28.3713 46.9662 28.5715H54.0001V25.0001H45.8109C46.0874 26.0714 46.4178 27.0125 46.7554 27.9696Z" fill="#03C19D"/>
</g>
<defs>
<filter id="filter0_d_81_9" x="0" y="0" width="108" height="108" filterUnits="userSpaceOnUse" color-interpolation-filters="sRGB">
<feFlood flood-opacity="0" result="BackgroundImageFix"/>
<feColorMatrix in="SourceAlpha" type="matrix" values="0 0 0 0 0 0 0 0 0 0 0 0 0 0 0 0 0 0 127 0" result="hardAlpha"/>
<feOffset dy="4"/>
<feGaussianBlur stdDeviation="2"/>
<feComposite in2="hardAlpha" operator="out"/>
<feColorMatrix type="matrix" values="0 0 0 0 0 0 0 0 0 0 0 0 0 0 0 0 0 0 0.25 0"/>
<feBlend mode="normal" in2="BackgroundImageFix" result="effect1_dropShadow_81_9"/>
<feBlend mode="normal" in="SourceGraphic" in2="effect1_dropShadow_81_9" result="shape"/>
</filter>
<clipPath id="clip0_81_9">
<rect width="100" height="100" fill="white" transform="translate(4)"/>
</clipPath>
</defs>
</svg>
